<mxfile host="app.diagrams.net" modified="2023-06-20T08:53:06.755Z" agent="Mozilla/5.0 (Windows NT 10.0; Win64; x64) AppleWebKit/537.36 (KHTML, like Gecko) Chrome/114.0.0.0 Safari/537.36 Edg/114.0.1823.51" etag="ShDToTI8Ceg8Xhsa6ImL" version="21.3.8" type="device">
  <diagram name="Página-1" id="-B17fMuk-l26hi6Diy7f">
    <mxGraphModel dx="1823" dy="581" grid="1" gridSize="10" guides="1" tooltips="1" connect="1" arrows="1" fold="1" page="1" pageScale="1" pageWidth="827" pageHeight="1169" math="0" shadow="0">
      <root>
        <mxCell id="0" />
        <mxCell id="1" parent="0" />
        <mxCell id="W2hmgDhnSJKZLPlbFTiu-7" style="edgeStyle=orthogonalEdgeStyle;rounded=0;orthogonalLoop=1;jettySize=auto;html=1;exitX=1;exitY=0.5;exitDx=0;exitDy=0;entryX=0;entryY=0.5;entryDx=0;entryDy=0;" parent="1" source="W2hmgDhnSJKZLPlbFTiu-4" target="W2hmgDhnSJKZLPlbFTiu-5" edge="1">
          <mxGeometry relative="1" as="geometry" />
        </mxCell>
        <mxCell id="W2hmgDhnSJKZLPlbFTiu-8" style="edgeStyle=orthogonalEdgeStyle;rounded=0;orthogonalLoop=1;jettySize=auto;html=1;exitX=1;exitY=0.5;exitDx=0;exitDy=0;entryX=0;entryY=0.5;entryDx=0;entryDy=0;" parent="1" source="W2hmgDhnSJKZLPlbFTiu-4" target="W2hmgDhnSJKZLPlbFTiu-6" edge="1">
          <mxGeometry relative="1" as="geometry" />
        </mxCell>
        <mxCell id="W2hmgDhnSJKZLPlbFTiu-13" style="edgeStyle=orthogonalEdgeStyle;rounded=0;orthogonalLoop=1;jettySize=auto;html=1;exitX=0.5;exitY=1;exitDx=0;exitDy=0;entryX=0.5;entryY=0;entryDx=0;entryDy=0;" parent="1" source="W2hmgDhnSJKZLPlbFTiu-4" target="W2hmgDhnSJKZLPlbFTiu-12" edge="1">
          <mxGeometry relative="1" as="geometry" />
        </mxCell>
        <mxCell id="W2hmgDhnSJKZLPlbFTiu-17" style="edgeStyle=orthogonalEdgeStyle;rounded=0;orthogonalLoop=1;jettySize=auto;html=1;exitX=0;exitY=0.5;exitDx=0;exitDy=0;entryX=1;entryY=0.5;entryDx=0;entryDy=0;" parent="1" source="W2hmgDhnSJKZLPlbFTiu-4" target="W2hmgDhnSJKZLPlbFTiu-16" edge="1">
          <mxGeometry relative="1" as="geometry" />
        </mxCell>
        <mxCell id="W2hmgDhnSJKZLPlbFTiu-4" value="&lt;p style=&quot;margin:0px;margin-top:4px;text-align:center;text-decoration:underline;&quot;&gt;&lt;b&gt;Página principal&lt;/b&gt;&lt;/p&gt;&lt;hr&gt;&lt;p style=&quot;margin:0px;margin-left:8px;&quot;&gt;3 ultimas incorporaciones&lt;/p&gt;&lt;p style=&quot;margin:0px;margin-left:8px;&quot;&gt;Barra de búsqueda&lt;/p&gt;&lt;p style=&quot;margin:0px;margin-left:8px;&quot;&gt;Subir videojuego&lt;/p&gt;&lt;p style=&quot;margin:0px;margin-left:8px;&quot;&gt;Inicio de sesión/ Registrarse&lt;/p&gt;&lt;p style=&quot;margin:0px;margin-left:8px;&quot;&gt;Perfil&lt;/p&gt;&lt;p style=&quot;margin:0px;margin-left:8px;&quot;&gt;Objetivo&lt;/p&gt;&lt;p style=&quot;margin:0px;margin-left:8px;&quot;&gt;Tutorial de consulta y subida&lt;/p&gt;" style="verticalAlign=top;align=left;overflow=fill;fontSize=12;fontFamily=Helvetica;html=1;whiteSpace=wrap;" parent="1" vertex="1">
          <mxGeometry x="110" y="210" width="170" height="140" as="geometry" />
        </mxCell>
        <mxCell id="W2hmgDhnSJKZLPlbFTiu-10" style="edgeStyle=orthogonalEdgeStyle;rounded=0;orthogonalLoop=1;jettySize=auto;html=1;exitX=1;exitY=0.5;exitDx=0;exitDy=0;entryX=0;entryY=0.5;entryDx=0;entryDy=0;" parent="1" source="W2hmgDhnSJKZLPlbFTiu-5" target="W2hmgDhnSJKZLPlbFTiu-9" edge="1">
          <mxGeometry relative="1" as="geometry" />
        </mxCell>
        <mxCell id="W2hmgDhnSJKZLPlbFTiu-5" value="&lt;p style=&quot;margin:0px;margin-top:4px;text-align:center;text-decoration:underline;&quot;&gt;&lt;b&gt;Inicio de&amp;nbsp;&lt;/b&gt;&lt;/p&gt;&lt;div style=&quot;text-align: center;&quot;&gt;&lt;span style=&quot;background-color: initial;&quot;&gt;&lt;b&gt;&lt;u&gt;sesión&lt;/u&gt;&lt;/b&gt;&lt;/span&gt;&lt;/div&gt;&lt;hr&gt;&lt;p style=&quot;margin:0px;margin-left:8px;&quot;&gt;Introducir nombre de usuario&lt;/p&gt;&lt;p style=&quot;margin:0px;margin-left:8px;&quot;&gt;Introducir contraseña&lt;/p&gt;" style="verticalAlign=top;align=left;overflow=fill;fontSize=12;fontFamily=Helvetica;html=1;whiteSpace=wrap;" parent="1" vertex="1">
          <mxGeometry x="370" y="180" width="170" height="80" as="geometry" />
        </mxCell>
        <mxCell id="W2hmgDhnSJKZLPlbFTiu-11" style="edgeStyle=orthogonalEdgeStyle;rounded=0;orthogonalLoop=1;jettySize=auto;html=1;exitX=1;exitY=0.5;exitDx=0;exitDy=0;" parent="1" source="W2hmgDhnSJKZLPlbFTiu-6" target="W2hmgDhnSJKZLPlbFTiu-9" edge="1">
          <mxGeometry relative="1" as="geometry" />
        </mxCell>
        <mxCell id="W2hmgDhnSJKZLPlbFTiu-6" value="&lt;p style=&quot;margin:0px;margin-top:4px;text-align:center;text-decoration:underline;&quot;&gt;&lt;b&gt;Registrarse&lt;/b&gt;&lt;/p&gt;&lt;hr&gt;&lt;p style=&quot;margin:0px;margin-left:8px;&quot;&gt;Introducir nombre de usuario&lt;/p&gt;&lt;p style=&quot;margin:0px;margin-left:8px;&quot;&gt;Introducir contraseña&lt;/p&gt;&lt;p style=&quot;margin:0px;margin-left:8px;&quot;&gt;Reintroducir contraseña (*)&lt;/p&gt;&lt;p style=&quot;margin:0px;margin-left:8px;&quot;&gt;País de origen&lt;/p&gt;" style="verticalAlign=top;align=left;overflow=fill;fontSize=12;fontFamily=Helvetica;html=1;whiteSpace=wrap;" parent="1" vertex="1">
          <mxGeometry x="370" y="300" width="170" height="90" as="geometry" />
        </mxCell>
        <mxCell id="W2hmgDhnSJKZLPlbFTiu-24" style="edgeStyle=orthogonalEdgeStyle;rounded=0;orthogonalLoop=1;jettySize=auto;html=1;exitX=1;exitY=0.5;exitDx=0;exitDy=0;entryX=0;entryY=0.5;entryDx=0;entryDy=0;" parent="1" source="W2hmgDhnSJKZLPlbFTiu-9" target="W2hmgDhnSJKZLPlbFTiu-22" edge="1">
          <mxGeometry relative="1" as="geometry" />
        </mxCell>
        <mxCell id="W2hmgDhnSJKZLPlbFTiu-25" style="edgeStyle=orthogonalEdgeStyle;rounded=0;orthogonalLoop=1;jettySize=auto;html=1;exitX=1;exitY=0.5;exitDx=0;exitDy=0;entryX=0;entryY=0.5;entryDx=0;entryDy=0;" parent="1" source="W2hmgDhnSJKZLPlbFTiu-9" target="W2hmgDhnSJKZLPlbFTiu-23" edge="1">
          <mxGeometry relative="1" as="geometry" />
        </mxCell>
        <mxCell id="W2hmgDhnSJKZLPlbFTiu-27" style="edgeStyle=orthogonalEdgeStyle;rounded=0;orthogonalLoop=1;jettySize=auto;html=1;exitX=0.5;exitY=1;exitDx=0;exitDy=0;entryX=0;entryY=0.5;entryDx=0;entryDy=0;" parent="1" source="W2hmgDhnSJKZLPlbFTiu-9" target="W2hmgDhnSJKZLPlbFTiu-26" edge="1">
          <mxGeometry relative="1" as="geometry">
            <Array as="points">
              <mxPoint x="695" y="390" />
              <mxPoint x="790" y="390" />
              <mxPoint x="790" y="529" />
            </Array>
          </mxGeometry>
        </mxCell>
        <mxCell id="W2hmgDhnSJKZLPlbFTiu-9" value="&lt;p style=&quot;margin:0px;margin-top:4px;text-align:center;text-decoration:underline;&quot;&gt;&lt;b&gt;Perfil&lt;/b&gt;&lt;/p&gt;&lt;hr&gt;&lt;p style=&quot;margin:0px;margin-left:8px;&quot;&gt;Datos del usuario&lt;/p&gt;&lt;p style=&quot;margin:0px;margin-left:8px;&quot;&gt;Cambiar nombre de usuario&lt;/p&gt;&lt;p style=&quot;margin:0px;margin-left:8px;&quot;&gt;Cambiar contraseña&lt;/p&gt;&lt;p style=&quot;margin:0px;margin-left:8px;&quot;&gt;Consultar tus comentarios&lt;/p&gt;&lt;p style=&quot;margin:0px;margin-left:8px;&quot;&gt;Borrar cuenta&lt;/p&gt;" style="verticalAlign=top;align=left;overflow=fill;fontSize=12;fontFamily=Helvetica;html=1;whiteSpace=wrap;" parent="1" vertex="1">
          <mxGeometry x="610" y="220" width="170" height="130" as="geometry" />
        </mxCell>
        <mxCell id="W2hmgDhnSJKZLPlbFTiu-15" style="edgeStyle=orthogonalEdgeStyle;rounded=0;orthogonalLoop=1;jettySize=auto;html=1;exitX=1;exitY=0.5;exitDx=0;exitDy=0;entryX=0;entryY=0.5;entryDx=0;entryDy=0;" parent="1" source="W2hmgDhnSJKZLPlbFTiu-12" target="W2hmgDhnSJKZLPlbFTiu-14" edge="1">
          <mxGeometry relative="1" as="geometry" />
        </mxCell>
        <mxCell id="W2hmgDhnSJKZLPlbFTiu-12" value="&lt;p style=&quot;margin:0px;margin-top:4px;text-align:center;text-decoration:underline;&quot;&gt;&lt;b&gt;Página de búsqueda&lt;/b&gt;&lt;/p&gt;&lt;hr&gt;&lt;p style=&quot;margin:0px;margin-left:8px;&quot;&gt;Listado de videojuegos&lt;/p&gt;&lt;p style=&quot;margin:0px;margin-left:8px;&quot;&gt;Introducir nombre&lt;/p&gt;&lt;p style=&quot;margin:0px;margin-left:8px;&quot;&gt;Filtros:&lt;/p&gt;&lt;p style=&quot;margin:0px;margin-left:8px;&quot;&gt;&lt;span style=&quot;white-space: pre;&quot;&gt; &lt;/span&gt;- Por edad&lt;br&gt;&lt;/p&gt;&lt;p style=&quot;margin:0px;margin-left:8px;&quot;&gt;&lt;span style=&quot;white-space: pre;&quot;&gt; &lt;/span&gt;- Por entidad&lt;br&gt;&lt;/p&gt;&lt;p style=&quot;margin:0px;margin-left:8px;&quot;&gt;&lt;span style=&quot;white-space: pre;&quot;&gt; &lt;/span&gt;- Por plataforma&lt;br&gt;&lt;/p&gt;&lt;p style=&quot;margin:0px;margin-left:8px;&quot;&gt;&lt;span style=&quot;white-space: pre;&quot;&gt; &lt;/span&gt;- Por desarrolladora&lt;br&gt;&lt;/p&gt;&lt;p style=&quot;margin:0px;margin-left:8px;&quot;&gt;&lt;br&gt;&lt;/p&gt;" style="verticalAlign=top;align=left;overflow=fill;fontSize=12;fontFamily=Helvetica;html=1;whiteSpace=wrap;" parent="1" vertex="1">
          <mxGeometry x="110" y="420" width="170" height="140" as="geometry" />
        </mxCell>
        <mxCell id="W2hmgDhnSJKZLPlbFTiu-19" style="edgeStyle=orthogonalEdgeStyle;rounded=0;orthogonalLoop=1;jettySize=auto;html=1;exitX=1;exitY=0.5;exitDx=0;exitDy=0;entryX=0;entryY=0.5;entryDx=0;entryDy=0;" parent="1" source="W2hmgDhnSJKZLPlbFTiu-14" target="W2hmgDhnSJKZLPlbFTiu-18" edge="1">
          <mxGeometry relative="1" as="geometry" />
        </mxCell>
        <mxCell id="W2hmgDhnSJKZLPlbFTiu-21" style="edgeStyle=orthogonalEdgeStyle;rounded=0;orthogonalLoop=1;jettySize=auto;html=1;exitX=0;exitY=0.75;exitDx=0;exitDy=0;entryX=1;entryY=0.5;entryDx=0;entryDy=0;" parent="1" source="W2hmgDhnSJKZLPlbFTiu-14" target="W2hmgDhnSJKZLPlbFTiu-20" edge="1">
          <mxGeometry relative="1" as="geometry">
            <Array as="points">
              <mxPoint x="80" y="601" />
              <mxPoint x="80" y="565" />
            </Array>
          </mxGeometry>
        </mxCell>
        <mxCell id="W2hmgDhnSJKZLPlbFTiu-14" value="&lt;p style=&quot;margin:0px;margin-top:4px;text-align:center;text-decoration:underline;&quot;&gt;&lt;b&gt;Videojuego a consultar&lt;/b&gt;&lt;/p&gt;&lt;hr&gt;&lt;p style=&quot;margin:0px;margin-left:8px;&quot;&gt;Desarrolladora&lt;/p&gt;&lt;p style=&quot;margin:0px;margin-left:8px;&quot;&gt;Clasificaciones&lt;/p&gt;&lt;p style=&quot;margin:0px;margin-left:8px;&quot;&gt;Comentarios de violencia&lt;/p&gt;&lt;p style=&quot;margin:0px;margin-left:8px;&quot;&gt;Comentarios de sexo y desnudez&lt;/p&gt;&lt;p style=&quot;margin:0px;margin-left:8px;&quot;&gt;Comentarios de lenguaje soez&lt;/p&gt;&lt;p style=&quot;margin:0px;margin-left:8px;&quot;&gt;Comentarios de drogas&lt;/p&gt;&lt;p style=&quot;margin:0px;margin-left:8px;&quot;&gt;Comentarios de misceláneos&lt;/p&gt;&lt;p style=&quot;margin:0px;margin-left:8px;&quot;&gt;Añadir comentario&lt;/p&gt;&lt;p style=&quot;margin:0px;margin-left:8px;&quot;&gt;Añadir clasificación&lt;/p&gt;&lt;p style=&quot;margin:0px;margin-left:8px;&quot;&gt;Subido por&lt;/p&gt;&lt;p style=&quot;margin:0px;margin-left:8px;&quot;&gt;Fecha de subida&lt;/p&gt;" style="verticalAlign=top;align=left;overflow=fill;fontSize=12;fontFamily=Helvetica;html=1;whiteSpace=wrap;" parent="1" vertex="1">
          <mxGeometry x="360" y="455" width="190" height="195" as="geometry" />
        </mxCell>
        <mxCell id="W2hmgDhnSJKZLPlbFTiu-16" value="&lt;p style=&quot;margin:0px;margin-top:4px;text-align:center;text-decoration:underline;&quot;&gt;&lt;b&gt;Subir videojuego&lt;/b&gt;&lt;/p&gt;&lt;hr&gt;&lt;p style=&quot;margin:0px;margin-left:8px;&quot;&gt;Introducir nombre&lt;/p&gt;&lt;p style=&quot;margin:0px;margin-left:8px;&quot;&gt;Agregar desarrolladora&lt;/p&gt;&lt;p style=&quot;margin:0px;margin-left:8px;&quot;&gt;Agregar clasificación/es&lt;/p&gt;&lt;p style=&quot;margin:0px;margin-left:8px;&quot;&gt;&lt;span style=&quot;white-space: pre;&quot;&gt; &lt;/span&gt;- Introducir nombre&lt;br&gt;&lt;/p&gt;&lt;p style=&quot;margin:0px;margin-left:8px;&quot;&gt;&lt;span style=&quot;white-space: pre;&quot;&gt; &lt;/span&gt;- Introducir edad&lt;br&gt;&lt;/p&gt;&lt;p style=&quot;margin:0px;margin-left:8px;&quot;&gt;&lt;span style=&quot;white-space: pre;&quot;&gt; &lt;/span&gt;- Añadir URL de entidad &lt;span style=&quot;white-space: pre;&quot;&gt; &lt;/span&gt;o videojuego&lt;br&gt;&lt;/p&gt;&lt;p style=&quot;margin:0px;margin-left:8px;&quot;&gt;Agregar plataforma/s&lt;/p&gt;&lt;p style=&quot;margin:0px;margin-left:8px;&quot;&gt;&lt;br&gt;&lt;/p&gt;" style="verticalAlign=top;align=left;overflow=fill;fontSize=12;fontFamily=Helvetica;html=1;whiteSpace=wrap;" parent="1" vertex="1">
          <mxGeometry x="-130" y="205" width="170" height="150" as="geometry" />
        </mxCell>
        <mxCell id="W2hmgDhnSJKZLPlbFTiu-18" value="&lt;p style=&quot;margin:0px;margin-top:4px;text-align:center;text-decoration:underline;&quot;&gt;&lt;b&gt;Añadir clasificación&lt;/b&gt;&lt;/p&gt;&lt;hr&gt;&lt;p style=&quot;margin:0px;margin-left:8px;&quot;&gt;Introducir nombre entidad&lt;/p&gt;&lt;p style=&quot;margin:0px;margin-left:8px;&quot;&gt;Introducir edad&lt;/p&gt;&lt;p style=&quot;margin:0px;margin-left:8px;&quot;&gt;Introducir URL entidad o videojuego&lt;/p&gt;&lt;p style=&quot;margin:0px;margin-left:8px;&quot;&gt;Introducir país&lt;/p&gt;&lt;p style=&quot;margin:0px;margin-left:8px;&quot;&gt;&lt;br&gt;&lt;/p&gt;" style="verticalAlign=top;align=left;overflow=fill;fontSize=12;fontFamily=Helvetica;html=1;whiteSpace=wrap;" parent="1" vertex="1">
          <mxGeometry x="600" y="497.5" width="170" height="110" as="geometry" />
        </mxCell>
        <mxCell id="W2hmgDhnSJKZLPlbFTiu-20" value="&lt;p style=&quot;margin:0px;margin-top:4px;text-align:center;text-decoration:underline;&quot;&gt;&lt;b&gt;Añadir comentario&lt;/b&gt;&lt;/p&gt;&lt;hr&gt;&lt;p style=&quot;margin:0px;margin-left:8px;&quot;&gt;Escribir texto del comentario&lt;/p&gt;&lt;p style=&quot;margin:0px;margin-left:8px;&quot;&gt;Desplegable de categoría de comentario&lt;/p&gt;&lt;p style=&quot;margin:0px;margin-left:8px;&quot;&gt;Indicar grado de severidad entre: leve, medio y severo&lt;/p&gt;&lt;p style=&quot;margin:0px;margin-left:8px;&quot;&gt;&lt;br&gt;&lt;/p&gt;" style="verticalAlign=top;align=left;overflow=fill;fontSize=12;fontFamily=Helvetica;html=1;whiteSpace=wrap;" parent="1" vertex="1">
          <mxGeometry x="-180" y="510" width="170" height="110" as="geometry" />
        </mxCell>
        <mxCell id="W2hmgDhnSJKZLPlbFTiu-22" value="&lt;p style=&quot;margin:0px;margin-top:4px;text-align:center;text-decoration:underline;&quot;&gt;&lt;b&gt;Cambiar nombre de usuario&lt;/b&gt;&lt;/p&gt;&lt;hr&gt;&lt;p style=&quot;margin:0px;margin-left:8px;&quot;&gt;Introducir viejo nombre de usuario (*)&lt;/p&gt;&lt;p style=&quot;margin:0px;margin-left:8px;&quot;&gt;Introducir nuevo nombre de usuario&lt;/p&gt;" style="verticalAlign=top;align=left;overflow=fill;fontSize=12;fontFamily=Helvetica;html=1;whiteSpace=wrap;" parent="1" vertex="1">
          <mxGeometry x="840" y="220" width="170" height="100" as="geometry" />
        </mxCell>
        <mxCell id="W2hmgDhnSJKZLPlbFTiu-23" value="&lt;p style=&quot;margin:0px;margin-top:4px;text-align:center;text-decoration:underline;&quot;&gt;&lt;b&gt;Cambiar contraseña&lt;/b&gt;&lt;/p&gt;&lt;hr&gt;&lt;p style=&quot;margin:0px;margin-left:8px;&quot;&gt;Introducir vieja contraseña (*)&lt;/p&gt;&lt;p style=&quot;margin:0px;margin-left:8px;&quot;&gt;Introducir nueva contraseña&lt;/p&gt;" style="verticalAlign=top;align=left;overflow=fill;fontSize=12;fontFamily=Helvetica;html=1;whiteSpace=wrap;" parent="1" vertex="1">
          <mxGeometry x="840" y="380" width="170" height="70" as="geometry" />
        </mxCell>
        <mxCell id="W2hmgDhnSJKZLPlbFTiu-26" value="&lt;p style=&quot;margin:0px;margin-top:4px;text-align:center;text-decoration:underline;&quot;&gt;&lt;b&gt;Consultar tus comentarios&lt;/b&gt;&lt;/p&gt;&lt;hr&gt;&lt;p style=&quot;margin:0px;margin-left:8px;&quot;&gt;Filtrar por categoría&lt;/p&gt;&lt;p style=&quot;margin:0px;margin-left:8px;&quot;&gt;Filtrar por severidad&lt;/p&gt;&lt;p style=&quot;margin:0px;margin-left:8px;&quot;&gt;Filtrar por videojuego&lt;/p&gt;" style="verticalAlign=top;align=left;overflow=fill;fontSize=12;fontFamily=Helvetica;html=1;whiteSpace=wrap;" parent="1" vertex="1">
          <mxGeometry x="840" y="487.5" width="170" height="82.5" as="geometry" />
        </mxCell>
      </root>
    </mxGraphModel>
  </diagram>
</mxfile>
